#!OML:ASF F:\VICON\USERDATA\INSTALL\rory3\rory3.ASF
:FULLY-SPECIFIED
:DEGREES
259
root 0.639258 16.4435 -17.407 2.24047 -15.6153 2.13481
lowerback 15.7966 0.676286 3.15097
upperback 0.124696 1.79467 3.75734
thorax -8.78639 0.809515 1.849
lowerneck -15.9331 -0.952468 -9.28245
upperneck 11.9241 0.192874 4.04735
head 6.21933 -0.000717849 2.82348
rclavicle 3.69739e-014 4.13472e-014
rhumerus -42.8739 -2.09948 -75.4529
rradius 40.458
rwrist -1.36807
rhand -19.4068 10.4169
rfingers 7.12502
rthumb 6.91244 -19.4502
lclavicle 3.69739e-014 4.13472e-014
lhumerus -43.5659 16.5528 75.584
lradius 49.3515
lwrist 7.1461
lhand -22.4063 21.984
lfingers 7.12502
lthumb 4.01647 51.9259
rfemur -29.2682 7.97045 17.0085
rtibia 55.3103
rfoot -21.4212 -9.98489
rtoes -10.5915
lfemur -27.755 9.8905 -20.4441
ltibia 55.8972
lfoot -22.385 2.28003
ltoes -11.1119
260
root 0.666833 16.2169 -17.5203 1.56578 -15.7048 2.86809
lowerback 17.4315 0.71251 2.44578
upperback 0.506647 1.77793 3.81108
thorax -9.31145 0.828286 2.30183
lowerneck -17.1058 -0.961909 -9.35602
upperneck 11.4436 0.345377 3.86459
head 6.25023 0.0733953 2.79113
rclavicle 1.19271e-015 -3.02153e-014
rhumerus -39.3244 -4.58544 -74.1594
rradius 36.2413
rwrist 0.510644
rhand -19.2569 11.1006
rfingers 7.12502
rthumb 7.05717 -18.7617
lclavicle 1.19271e-015 -3.02153e-014
lhumerus -42.0301 18.5721 75.4515
lradius 48.17
lwrist 6.30989
lhand -23.0038 19.9285
lfingers 7.12502
lthumb 3.43944 49.8805
rfemur -31.7941 7.93443 16.2376
rtibia 59.6336
rfoot -21.9231 -10.1102
rtoes -11.181
lfemur -28.704 9.60884 -21.482
ltibia 58.1602
lfoot -24.7168 3.90884
ltoes -10.1204
261
root 0.699886 15.9833 -17.633 0.665431 -15.5395 3.28882
lowerback 19.2033 0.709758 2.42307
upperback 1.09065 1.80979 3.68924
thorax -9.65347 0.835416 2.16237
lowerneck -18.103 -1.03853 -9.18982
upperneck 10.4242 0.293294 3.94391
head 6.08927 0.0913355 2.7786
rclavicle -4.65156e-014 -1.74931e-014
rhumerus -35.9453 -8.07636 -73.0165
rradius 32.0991
rwrist 2.81537
rhand -19.0197 11.0917
rfingers 7.12502
rthumb 7.28615 -18.7628
lclavicle -4.65156e-014 -1.74931e-014
lhumerus -40.0163 20.0318 75.4566
lradius 46.4443
lwrist 6.00588
lhand -22.4875 16.0385
lfingers 7.12502
lthumb 3.93802 45.9819
rfemur -33.6769 7.3968 15.8864
rtibia 63.3844
rfoot -22.1664 -10.6415
rtoes -14.7609
lfemur -29.2797 9.05677 -22.0824
ltibia 60.169
lfoot -26.2885 6.05564
ltoes -11.3261
262
root 0.73663 15.7754 -17.732 -0.0687704 -15.5405 3.78587
lowerback 20.4431 0.776129 2.30749
upperback 1.76397 1.87546 3.54149
thorax -9.5906 0.863925 2.03718
lowerneck -18.9431 -1.10485 -8.84426
upperneck 9.02698 0.216337 3.85954
head 5.78179 0.0948617 2.67769
rclavicle -3.33958e-014 1.59028e-015
rhumerus -32.8715 -12.2 -71.7636
rradius 28.3759
rwrist 5.76874
rhand -18.3572 10.6694
rfingers 7.12502
rthumb 7.92554 -19.162
lclavicle -3.33958e-014 1.59028e-015
lhumerus -37.9826 21.2845 75.8048
lradius 44.544
lwrist 6.83483
lhand -25.026 20.3131
lfingers 7.12502
lthumb 1.48643 50.2876
rfemur -35.1646 6.91579 15.397
rtibia 66.3757
rfoot -22.9365 -10.6748
rtoes -16.509
lfemur -29.9207 8.49568 -22.7468
ltibia 62.1346
lfoot -27.4989 7.92652
ltoes -10.393
263
root 0.775168 15.6324 -17.8136 -0.466006 -15.741 4.21444
lowerback 21.1576 0.871107 2.2269
upperback 2.29246 1.97035 3.42003
thorax -9.39376 0.907051 1.915
lowerneck -19.3643 -1.12484 -8.32945
upperneck 7.70127 0.148354 3.50745
head 5.42957 0.0789859 2.46505
rclavicle -1.15295e-014 -3.18055e-014
rhumerus -30.4849 -17.3517 -70.2316
rradius 25.2599
rwrist 9.99932
rhand -17.3317 9.92534
rfingers 7.12502
rthumb 8.91523 -19.8663
lclavicle -1.15295e-014 -3.18055e-014
lhumerus -36.2985 22.0777 76.3047
lradius 42.6899
lwrist 8.17324
lhand -26.9974 22.8586
lfingers 7.12502
lthumb -0.417537 52.8379
rfemur -36.3884 6.62431 14.8401
rtibia 68.5486
rfoot -24.0596 -10.2005
rtoes -14.2249
lfemur -30.7535 8.13438 -23.3614
ltibia 64.0454
lfoot -28.6733 8.82562
ltoes -7.94738
264
root 0.812324 15.5219 -17.896 -0.409798 -15.9857 4.23605
lowerback 21.6111 0.939016 2.43315
upperback 2.5358 2.11882 3.48973
thorax -9.36799 0.968755 1.82659
lowerneck -19.5109 -1.12072 -8.03969
upperneck 6.81182 0.130739 3.21291
head 5.17049 0.0732638 2.31646
rclavicle -1.47101e-014 -9.54166e-015
rhumerus -29.0293 -22.6345 -68.5201
rradius 23.1491
rwrist 14.6877
rhand -16.211 8.90088
rfingers 7.12502
rthumb 9.99664 -20.8417
lclavicle -1.47101e-014 -9.54166e-015
lhumerus -34.9629 22.0291 77.0482
lradius 41.0336
lwrist 9.93207
lhand -27.7133 25.9759
lfingers 7.12502
lthumb -1.10903 55.9528
rfemur -37.6529 6.25981 14.6576
rtibia 70.1044
rfoot -25.0286 -9.88176
rtoes -13.4191
lfemur -32.2958 8.20476 -23.5476
ltibia 66.0299
lfoot -29.0922 8.94447
ltoes -6.782
265
root 0.840147 15.3955 -17.9952 -0.148018 -16.3302 4.0923
lowerback 22.1953 1.06522 2.46555
upperback 2.58409 2.33935 3.74042
thorax -9.64504 1.07287 2.01492
lowerneck -19.7567 -1.03506 -8.11412
upperneck 6.54086 0.281147 3.24328
head 5.11362 0.153301 2.35171
rclavicle -2.74323e-014 -2.38542e-014
rhumerus -27.9586 -26.7898 -67.1838
rradius 21.9629
rwrist 18.3557
rhand -15.7075 6.32616
rfingers 7.12502
rthumb 10.4823 -23.3925
lclavicle -2.74323e-014 -2.38542e-014
lhumerus -33.7987 21.3363 78.0296
lradius 39.4293
lwrist 11.9008
lhand -28.1395 27.052
lfingers 7.12502
lthumb -1.52061 57.0263
rfemur -39.187 5.9515 14.679
rtibia 71.416
rfoot -25.5301 -9.42033
rtoes -14.4096
lfemur -34.3192 8.79624 -23.4529
ltibia 67.961
lfoot -29.0517 8.44226
ltoes -7.02431
266
root 0.864247 15.2733 -18.0943 0.252071 -16.6475 3.85237
lowerback 22.6826 1.18105 2.52433
upperback 2.59129 2.55525 4.01964
thorax -9.91712 1.17454 2.22135
lowerneck -20.2043 -0.947925 -8.21927
upperneck 6.66413 0.443978 3.402
head 5.21189 0.242541 2.43836
rclavicle 1.19271e-014 -9.54166e-015
rhumerus -26.8514 -30.6204 -66.2449
rradius 21.0657
rwrist 21.1108
rhand -15.5902 3.80725
rfingers 7.12502
rthumb 10.5955 -25.9056
lclavicle 1.19271e-014 -9.54166e-015
lhumerus -32.643 20.4317 78.9564
lradius 37.8195
lwrist 12.9228
lhand -27.9043 26.3578
lfingers 7.12502
lthumb -1.29347 56.3337
rfemur -40.846 5.77641 14.809
rtibia 72.6241
rfoot -25.8168 -8.62706
rtoes -13.4238
lfemur -36.2573 9.52571 -23.1992
ltibia 69.651
lfoot -29.0035 7.78399
ltoes -8.33374
267
root 0.889793 15.1993 -18.1782 0.774867 -17.0671 3.41536
lowerback 23.1306 1.30788 2.82094
upperback 2.512 2.85007 4.29366
thorax -10.2575 1.30245 2.26147
lowerneck -20.8315 -1.00413 -8.13435
upperneck 6.91047 0.400421 3.40215
head 5.38965 0.222964 2.42557
rclavicle 1.03368e-014 -8.11041e-014
rhumerus -25.8622 -33.876 -65.6277
rradius 20.2987
rwrist 22.6381
rhand -15.5784 3.41845
rfingers 7.12502
rthumb 10.6068 -26.2939
lclavicle 1.03368e-014 -8.11041e-014
lhumerus -31.7138 19.1766 79.8364
lradius 36.5758
lwrist 12.9526
lhand -27.5576 23.7268
lfingers 7.12502
lthumb -0.958633 53.7044
rfemur -42.2866 5.9499 15.1896
rtibia 73.4933
rfoot -25.8913 -8.19086
rtoes -12.1505
lfemur -37.8128 10.2974 -22.7353
ltibia 70.9007
lfoot -29.0202 7.51627
ltoes -8.72301
268
root 0.91357 15.1574 -18.2563 1.2964 -17.6983 3.04875
lowerback 23.6315 1.54648 3.02853
upperback 2.38063 3.26614 4.44763
thorax -10.6859 1.48548 2.17681
lowerneck -21.6355 -1.03146 -8.01865
upperneck 7.40071 0.376946 3.58268
head 5.67175 0.226196 2.47154
rclavicle -6.36111e-015 2.38542e-014
rhumerus -24.6596 -34.9165 -66.079
rradius 20.0507
rwrist 21.3979
rhand -15.5307 3.87309
rfingers 7.12502
rthumb 10.6529 -25.8369
lclavicle -6.36111e-015 2.38542e-014
lhumerus -30.9846 17.9435 80.4628
lradius 35.9333
lwrist 11.422
lhand -26.584 22.0048
lfingers 7.12502
lthumb -0.0183178 51.9845
rfemur -43.5151 6.45782 15.5259
rtibia 73.9649
rfoot -25.6778 -8.01387
rtoes -12.07
lfemur -38.9822 11.1489 -22.3329
ltibia 71.6621
lfoot -29.3356 7.0447
ltoes -7.20185
